G04 #@! TF.GenerationSoftware,KiCad,Pcbnew,9.0.6*
G04 #@! TF.CreationDate,2026-05-05T20:55:18-04:00*
G04 #@! TF.ProjectId,Amply,416d706c-792e-46b6-9963-61645f706362,2605-B*
G04 #@! TF.SameCoordinates,Original*
G04 #@! TF.FileFunction,Legend,Bot*
G04 #@! TF.FilePolarity,Positive*
%FSLAX46Y46*%
G04 Gerber Fmt 4.6, Leading zero omitted, Abs format (unit mm)*
G04 Created by KiCad (PCBNEW 9.0.6) date 2026-05-05 20:55:18*
%MOMM*%
%LPD*%
G01*
G04 APERTURE LIST*
G04 Aperture macros list*
%AMRoundRect*
0 Rectangle with rounded corners*
0 $1 Rounding radius*
0 $2 $3 $4 $5 $6 $7 $8 $9 X,Y pos of 4 corners*
0 Add a 4 corners polygon primitive as box body*
4,1,4,$2,$3,$4,$5,$6,$7,$8,$9,$2,$3,0*
0 Add four circle primitives for the rounded corners*
1,1,$1+$1,$2,$3*
1,1,$1+$1,$4,$5*
1,1,$1+$1,$6,$7*
1,1,$1+$1,$8,$9*
0 Add four rect primitives between the rounded corners*
20,1,$1+$1,$2,$3,$4,$5,0*
20,1,$1+$1,$4,$5,$6,$7,0*
20,1,$1+$1,$6,$7,$8,$9,0*
20,1,$1+$1,$8,$9,$2,$3,0*%
G04 Aperture macros list end*
%ADD10C,0.150000*%
%ADD11RoundRect,0.250001X0.949999X-0.949999X0.949999X0.949999X-0.949999X0.949999X-0.949999X-0.949999X0*%
%ADD12C,2.400000*%
%ADD13RoundRect,0.250000X-0.550000X-0.550000X0.550000X-0.550000X0.550000X0.550000X-0.550000X0.550000X0*%
%ADD14C,1.600000*%
%ADD15R,1.700000X1.700000*%
%ADD16C,1.700000*%
%ADD17R,1.560000X1.560000*%
%ADD18C,1.560000*%
%ADD19R,1.905000X2.000000*%
%ADD20O,1.905000X2.000000*%
%ADD21C,3.200000*%
%ADD22R,1.710000X1.800000*%
%ADD23O,1.710000X1.800000*%
%ADD24RoundRect,0.250000X0.550000X-0.950000X0.550000X0.950000X-0.550000X0.950000X-0.550000X-0.950000X0*%
%ADD25O,1.600000X2.400000*%
%ADD26RoundRect,0.250000X1.050000X1.050000X-1.050000X1.050000X-1.050000X-1.050000X1.050000X-1.050000X0*%
%ADD27C,2.600000*%
%ADD28RoundRect,0.250000X0.550000X0.550000X-0.550000X0.550000X-0.550000X-0.550000X0.550000X-0.550000X0*%
G04 APERTURE END LIST*
D10*
X148158458Y-128789819D02*
X147920363Y-129789819D01*
X147920363Y-129789819D02*
X147729887Y-129075533D01*
X147729887Y-129075533D02*
X147539411Y-129789819D01*
X147539411Y-129789819D02*
X147301316Y-128789819D01*
X146491792Y-129789819D02*
X146491792Y-129266009D01*
X146491792Y-129266009D02*
X146539411Y-129170771D01*
X146539411Y-129170771D02*
X146634649Y-129123152D01*
X146634649Y-129123152D02*
X146825125Y-129123152D01*
X146825125Y-129123152D02*
X146920363Y-129170771D01*
X146491792Y-129742200D02*
X146587030Y-129789819D01*
X146587030Y-129789819D02*
X146825125Y-129789819D01*
X146825125Y-129789819D02*
X146920363Y-129742200D01*
X146920363Y-129742200D02*
X146967982Y-129646961D01*
X146967982Y-129646961D02*
X146967982Y-129551723D01*
X146967982Y-129551723D02*
X146920363Y-129456485D01*
X146920363Y-129456485D02*
X146825125Y-129408866D01*
X146825125Y-129408866D02*
X146587030Y-129408866D01*
X146587030Y-129408866D02*
X146491792Y-129361247D01*
X146110839Y-129123152D02*
X145872744Y-129789819D01*
X145634649Y-129123152D02*
X145872744Y-129789819D01*
X145872744Y-129789819D02*
X145967982Y-130027914D01*
X145967982Y-130027914D02*
X146015601Y-130075533D01*
X146015601Y-130075533D02*
X146110839Y-130123152D01*
X145348934Y-128789819D02*
X145110839Y-129789819D01*
X145110839Y-129789819D02*
X144920363Y-129075533D01*
X144920363Y-129075533D02*
X144729887Y-129789819D01*
X144729887Y-129789819D02*
X144491792Y-128789819D01*
X143682268Y-129789819D02*
X143682268Y-129266009D01*
X143682268Y-129266009D02*
X143729887Y-129170771D01*
X143729887Y-129170771D02*
X143825125Y-129123152D01*
X143825125Y-129123152D02*
X144015601Y-129123152D01*
X144015601Y-129123152D02*
X144110839Y-129170771D01*
X143682268Y-129742200D02*
X143777506Y-129789819D01*
X143777506Y-129789819D02*
X144015601Y-129789819D01*
X144015601Y-129789819D02*
X144110839Y-129742200D01*
X144110839Y-129742200D02*
X144158458Y-129646961D01*
X144158458Y-129646961D02*
X144158458Y-129551723D01*
X144158458Y-129551723D02*
X144110839Y-129456485D01*
X144110839Y-129456485D02*
X144015601Y-129408866D01*
X144015601Y-129408866D02*
X143777506Y-129408866D01*
X143777506Y-129408866D02*
X143682268Y-129361247D01*
X143301315Y-129123152D02*
X143063220Y-129789819D01*
X142825125Y-129123152D02*
X143063220Y-129789819D01*
X143063220Y-129789819D02*
X143158458Y-130027914D01*
X143158458Y-130027914D02*
X143206077Y-130075533D01*
X143206077Y-130075533D02*
X143301315Y-130123152D01*
X142539410Y-128789819D02*
X142301315Y-129789819D01*
X142301315Y-129789819D02*
X142110839Y-129075533D01*
X142110839Y-129075533D02*
X141920363Y-129789819D01*
X141920363Y-129789819D02*
X141682268Y-128789819D01*
X140872744Y-129789819D02*
X140872744Y-129266009D01*
X140872744Y-129266009D02*
X140920363Y-129170771D01*
X140920363Y-129170771D02*
X141015601Y-129123152D01*
X141015601Y-129123152D02*
X141206077Y-129123152D01*
X141206077Y-129123152D02*
X141301315Y-129170771D01*
X140872744Y-129742200D02*
X140967982Y-129789819D01*
X140967982Y-129789819D02*
X141206077Y-129789819D01*
X141206077Y-129789819D02*
X141301315Y-129742200D01*
X141301315Y-129742200D02*
X141348934Y-129646961D01*
X141348934Y-129646961D02*
X141348934Y-129551723D01*
X141348934Y-129551723D02*
X141301315Y-129456485D01*
X141301315Y-129456485D02*
X141206077Y-129408866D01*
X141206077Y-129408866D02*
X140967982Y-129408866D01*
X140967982Y-129408866D02*
X140872744Y-129361247D01*
X140491791Y-129123152D02*
X140253696Y-129789819D01*
X140015601Y-129123152D02*
X140253696Y-129789819D01*
X140253696Y-129789819D02*
X140348934Y-130027914D01*
X140348934Y-130027914D02*
X140396553Y-130075533D01*
X140396553Y-130075533D02*
X140491791Y-130123152D01*
%LPC*%
D11*
G04 #@! TO.C,C15*
X158380000Y-68320000D03*
D12*
X158380000Y-60820000D03*
G04 #@! TD*
D13*
G04 #@! TO.C,D4*
X119640000Y-115570000D03*
D14*
X127260000Y-115570000D03*
G04 #@! TD*
D11*
G04 #@! TO.C,C14*
X158380000Y-106300000D03*
D12*
X158380000Y-98800000D03*
G04 #@! TD*
D15*
G04 #@! TO.C,J11*
X170180000Y-77500000D03*
D16*
X170180000Y-74960000D03*
G04 #@! TD*
D17*
G04 #@! TO.C,RV3*
X137500000Y-127000000D03*
D18*
X135000000Y-122000000D03*
X132500000Y-127000000D03*
G04 #@! TD*
D15*
G04 #@! TO.C,J4*
X127460000Y-59200000D03*
D16*
X130000000Y-59200000D03*
X132540000Y-59200000D03*
G04 #@! TD*
D19*
G04 #@! TO.C,U2*
X101820000Y-39700000D03*
D20*
X104360000Y-39700000D03*
X106900000Y-39700000D03*
G04 #@! TD*
D14*
G04 #@! TO.C,C9*
X109520000Y-124460000D03*
X114520000Y-124460000D03*
G04 #@! TD*
D21*
G04 #@! TO.C,REF\u002A\u002A*
X170210000Y-36470000D03*
G04 #@! TD*
D15*
G04 #@! TO.C,J2*
X87490000Y-63370000D03*
D16*
X90030000Y-63370000D03*
G04 #@! TD*
D15*
G04 #@! TO.C,J7*
X152400000Y-38100000D03*
D16*
X152400000Y-40640000D03*
G04 #@! TD*
D22*
G04 #@! TO.C,Q7*
X141980000Y-85090000D03*
D23*
X139700000Y-85090000D03*
X137420000Y-85090000D03*
G04 #@! TD*
D14*
G04 #@! TO.C,R2*
X96520000Y-73660000D03*
X88900000Y-73660000D03*
G04 #@! TD*
D15*
G04 #@! TO.C,J8*
X157480000Y-38100000D03*
D16*
X157480000Y-40640000D03*
G04 #@! TD*
D13*
G04 #@! TO.C,D5*
X119640000Y-78740000D03*
D14*
X127260000Y-78740000D03*
G04 #@! TD*
D21*
G04 #@! TO.C,REF\u002A\u002A*
X170210000Y-129570000D03*
G04 #@! TD*
D14*
G04 #@! TO.C,C6*
X79150000Y-95270000D03*
X79150000Y-97770000D03*
G04 #@! TD*
G04 #@! TO.C,R9*
X152400000Y-44450000D03*
X152400000Y-52070000D03*
G04 #@! TD*
D13*
G04 #@! TO.C,D6*
X108210000Y-78740000D03*
D14*
X115830000Y-78740000D03*
G04 #@! TD*
D21*
G04 #@! TO.C,REF\u002A\u002A*
X77110000Y-129570000D03*
G04 #@! TD*
D24*
G04 #@! TO.C,U1*
X83820000Y-100330000D03*
D25*
X86360000Y-100330000D03*
X88900000Y-100330000D03*
X91440000Y-100330000D03*
X91440000Y-92710000D03*
X88900000Y-92710000D03*
X86360000Y-92710000D03*
X83820000Y-92710000D03*
G04 #@! TD*
D13*
G04 #@! TO.C,D3*
X108210000Y-115570000D03*
D14*
X115830000Y-115570000D03*
G04 #@! TD*
G04 #@! TO.C,R12*
X170180000Y-56500000D03*
X170180000Y-64120000D03*
G04 #@! TD*
D26*
G04 #@! TO.C,D1*
X114440000Y-53950000D03*
D27*
X99200000Y-53950000D03*
G04 #@! TD*
D14*
G04 #@! TO.C,R10*
X157480000Y-44450000D03*
X157480000Y-52070000D03*
G04 #@! TD*
D11*
G04 #@! TO.C,C13*
X158750000Y-125245267D03*
D12*
X158750000Y-117745267D03*
G04 #@! TD*
D14*
G04 #@! TO.C,C7*
X87630000Y-107990000D03*
X87630000Y-112990000D03*
G04 #@! TD*
D17*
G04 #@! TO.C,RV2*
X81800000Y-76840000D03*
D18*
X76800000Y-79340000D03*
X81800000Y-81840000D03*
G04 #@! TD*
D22*
G04 #@! TO.C,Q5*
X137420000Y-109220000D03*
D23*
X139700000Y-109220000D03*
X141980000Y-109220000D03*
G04 #@! TD*
D14*
G04 #@! TO.C,C4*
X97790000Y-85090000D03*
X97790000Y-80090000D03*
G04 #@! TD*
G04 #@! TO.C,C1*
X97790000Y-112990000D03*
X97790000Y-107990000D03*
G04 #@! TD*
D22*
G04 #@! TO.C,Q1*
X127943333Y-109220000D03*
D23*
X130223333Y-109220000D03*
X132503333Y-109220000D03*
G04 #@! TD*
D14*
G04 #@! TO.C,C19*
X170140000Y-108450000D03*
X170140000Y-105950000D03*
G04 #@! TD*
G04 #@! TO.C,C8*
X87630000Y-80050000D03*
X87630000Y-85050000D03*
G04 #@! TD*
D26*
G04 #@! TO.C,D2*
X114350000Y-61680000D03*
D27*
X99110000Y-61680000D03*
G04 #@! TD*
D15*
G04 #@! TO.C,J9*
X162560000Y-38100000D03*
D16*
X162560000Y-40640000D03*
G04 #@! TD*
D14*
G04 #@! TO.C,C5*
X106900000Y-44790000D03*
X101900000Y-44790000D03*
G04 #@! TD*
D22*
G04 #@! TO.C,Q8*
X123026667Y-85090000D03*
D23*
X120746667Y-85090000D03*
X118466667Y-85090000D03*
G04 #@! TD*
D14*
G04 #@! TO.C,C17*
X106370000Y-97700000D03*
X106370000Y-95200000D03*
G04 #@! TD*
D22*
G04 #@! TO.C,Q4*
X113550000Y-85090000D03*
D23*
X111270000Y-85090000D03*
X108990000Y-85090000D03*
G04 #@! TD*
D14*
G04 #@! TO.C,R4*
X96520000Y-92710000D03*
X96520000Y-100330000D03*
G04 #@! TD*
G04 #@! TO.C,R8*
X131070000Y-78750000D03*
X138690000Y-78750000D03*
G04 #@! TD*
D28*
G04 #@! TO.C,C11*
X124522651Y-124460000D03*
D14*
X120722651Y-124460000D03*
G04 #@! TD*
D22*
G04 #@! TO.C,Q2*
X108990000Y-109220000D03*
D23*
X111270000Y-109220000D03*
X113550000Y-109220000D03*
G04 #@! TD*
D14*
G04 #@! TO.C,R13*
X170130000Y-94120000D03*
X170130000Y-101740000D03*
G04 #@! TD*
G04 #@! TO.C,C3*
X92710000Y-85050000D03*
X92710000Y-80050000D03*
G04 #@! TD*
D12*
G04 #@! TO.C,R14*
X144270000Y-123395000D03*
X144270000Y-115775000D03*
G04 #@! TD*
D28*
G04 #@! TO.C,C12*
X124522651Y-71060000D03*
D14*
X120722651Y-71060000D03*
G04 #@! TD*
D22*
G04 #@! TO.C,Q3*
X132503333Y-85090000D03*
D23*
X130223333Y-85090000D03*
X127943333Y-85090000D03*
G04 #@! TD*
D11*
G04 #@! TO.C,C16*
X158380000Y-87250000D03*
D12*
X158380000Y-79750000D03*
G04 #@! TD*
D15*
G04 #@! TO.C,J5*
X138500000Y-36250000D03*
D16*
X138500000Y-38790000D03*
X138500000Y-41330000D03*
X138500000Y-43870000D03*
X138500000Y-46410000D03*
X138500000Y-48950000D03*
G04 #@! TD*
D14*
G04 #@! TO.C,C10*
X114520000Y-71120000D03*
X109520000Y-71120000D03*
G04 #@! TD*
G04 #@! TO.C,R11*
X162560000Y-44450000D03*
X162560000Y-52070000D03*
G04 #@! TD*
G04 #@! TO.C,R6*
X131070000Y-115570000D03*
X138690000Y-115570000D03*
G04 #@! TD*
G04 #@! TO.C,C2*
X92710000Y-112990000D03*
X92710000Y-107990000D03*
G04 #@! TD*
D12*
G04 #@! TO.C,R15*
X145550000Y-70560000D03*
X145550000Y-78180000D03*
G04 #@! TD*
D15*
G04 #@! TO.C,J6*
X147320000Y-38100000D03*
D16*
X147320000Y-40640000D03*
G04 #@! TD*
D14*
G04 #@! TO.C,R1*
X96520000Y-118110000D03*
X88900000Y-118110000D03*
G04 #@! TD*
D17*
G04 #@! TO.C,RV1*
X81800000Y-104140000D03*
D18*
X76800000Y-106640000D03*
X81800000Y-109140000D03*
G04 #@! TD*
D22*
G04 #@! TO.C,Q6*
X118370000Y-109220000D03*
D23*
X120650000Y-109220000D03*
X122930000Y-109220000D03*
G04 #@! TD*
D17*
G04 #@! TO.C,RV4*
X132250000Y-68760000D03*
D18*
X134750000Y-73760000D03*
X137250000Y-68760000D03*
G04 #@! TD*
D14*
G04 #@! TO.C,R3*
X101600000Y-92710000D03*
X101600000Y-100330000D03*
G04 #@! TD*
G04 #@! TO.C,C18*
X170180000Y-70490000D03*
X170180000Y-67990000D03*
G04 #@! TD*
D15*
G04 #@! TO.C,J10*
X170130000Y-115560000D03*
D16*
X170130000Y-113020000D03*
G04 #@! TD*
D21*
G04 #@! TO.C,REF\u002A\u002A*
X77110000Y-36470000D03*
G04 #@! TD*
%LPD*%
M02*
