M48
; DRILL file {KiCad 9.0.6} date 2026-05-05T20:55:18-0400
; FORMAT={-:-/ absolute / metric / decimal}
; #@! TF.CreationDate,2026-05-05T20:55:18-04:00
; #@! TF.GenerationSoftware,Kicad,Pcbnew,9.0.6
; #@! TF.FileFunction,Plated,1,2,PTH
FMAT,2
METRIC
; #@! TA.AperFunction,Plated,PTH,ViaDrill
T1C0.300
; #@! TA.AperFunction,Plated,PTH,ComponentDrill
T2C0.800
; #@! TA.AperFunction,Plated,PTH,ComponentDrill
T3C1.000
; #@! TA.AperFunction,Plated,PTH,ComponentDrill
T4C1.100
; #@! TA.AperFunction,Plated,PTH,ComponentDrill
T5C1.200
; #@! TA.AperFunction,Plated,PTH,ComponentDrill
T6C1.300
%
G90
G05
T1
X86.57Y-120.33
X86.6Y-121.56
X87.49Y-57.97
X87.49Y-58.77
X87.49Y-59.57
X87.49Y-60.37
X89.66Y-86.61
X90.91Y-86.61
X98.81Y-89.019
X98.81Y-90.48
X101.01Y-86.61
X102.26Y-86.61
X103.03Y-68.46
X104.25Y-68.46
X109.64Y-89.01
X109.64Y-90.471
X116.19Y-83.22
X116.2Y-81.4
X116.96Y-104.35
X116.96Y-106.17
X123.25Y-104.35
X123.27Y-106.17
X130.21Y-104.32
X134.16Y-81.71
X134.16Y-82.93
T2
X79.15Y-95.27
X79.15Y-97.77
X83.82Y-92.71
X83.82Y-100.33
X86.36Y-92.71
X86.36Y-100.33
X87.63Y-80.05
X87.63Y-85.05
X87.63Y-107.99
X87.63Y-112.99
X88.9Y-73.66
X88.9Y-92.71
X88.9Y-100.33
X88.9Y-118.11
X91.44Y-92.71
X91.44Y-100.33
X92.71Y-80.05
X92.71Y-85.05
X92.71Y-107.99
X92.71Y-112.99
X96.52Y-73.66
X96.52Y-92.71
X96.52Y-100.33
X96.52Y-118.11
X97.79Y-80.09
X97.79Y-85.09
X97.79Y-107.99
X97.79Y-112.99
X101.6Y-92.71
X101.6Y-100.33
X101.9Y-44.79
X106.37Y-95.2
X106.37Y-97.7
X106.9Y-44.79
X108.21Y-78.74
X108.21Y-115.57
X109.52Y-71.12
X109.52Y-124.46
X114.52Y-71.12
X114.52Y-124.46
X115.83Y-78.74
X115.83Y-115.57
X119.64Y-78.74
X119.64Y-115.57
X120.723Y-71.06
X120.723Y-124.46
X124.523Y-71.06
X124.523Y-124.46
X127.26Y-78.74
X127.26Y-115.57
X131.07Y-78.75
X131.07Y-115.57
X138.69Y-78.75
X138.69Y-115.57
X152.4Y-44.45
X152.4Y-52.07
X157.48Y-44.45
X157.48Y-52.07
X162.56Y-44.45
X162.56Y-52.07
X170.13Y-94.12
X170.13Y-101.74
X170.14Y-105.95
X170.14Y-108.45
X170.18Y-56.5
X170.18Y-64.12
X170.18Y-67.99
X170.18Y-70.49
T3
X76.8Y-79.34
X76.8Y-106.64
X81.8Y-76.84
X81.8Y-81.84
X81.8Y-104.14
X81.8Y-109.14
X87.49Y-63.37
X90.03Y-63.37
X108.99Y-85.09
X108.99Y-109.22
X111.27Y-85.09
X111.27Y-109.22
X113.55Y-85.09
X113.55Y-109.22
X118.37Y-109.22
X118.467Y-85.09
X120.65Y-109.22
X120.747Y-85.09
X122.93Y-109.22
X123.027Y-85.09
X127.46Y-59.2
X127.943Y-85.09
X127.943Y-109.22
X130.0Y-59.2
X130.223Y-85.09
X130.223Y-109.22
X132.25Y-68.76
X132.5Y-127.0
X132.503Y-85.09
X132.503Y-109.22
X132.54Y-59.2
X134.75Y-73.76
X135.0Y-122.0
X137.25Y-68.76
X137.42Y-85.09
X137.42Y-109.22
X137.5Y-127.0
X138.5Y-36.25
X138.5Y-38.79
X138.5Y-41.33
X138.5Y-43.87
X138.5Y-46.41
X138.5Y-48.95
X139.7Y-85.09
X139.7Y-109.22
X141.98Y-85.09
X141.98Y-109.22
X147.32Y-38.1
X147.32Y-40.64
X152.4Y-38.1
X152.4Y-40.64
X157.48Y-38.1
X157.48Y-40.64
X162.56Y-38.1
X162.56Y-40.64
X170.13Y-113.02
X170.13Y-115.56
X170.18Y-74.96
X170.18Y-77.5
T4
X101.82Y-39.7
X104.36Y-39.7
X106.9Y-39.7
T5
X144.27Y-115.775
X144.27Y-123.395
X145.55Y-70.56
X145.55Y-78.18
X158.38Y-60.82
X158.38Y-68.32
X158.38Y-79.75
X158.38Y-87.25
X158.38Y-98.8
X158.38Y-106.3
X158.75Y-117.745
X158.75Y-125.245
T6
X99.11Y-61.68
X99.2Y-53.95
X114.35Y-61.68
X114.44Y-53.95
M30
